<svg xmlns="http://www.w3.org/2000/svg" viewBox="0 0 898.24 312.22"><defs><style>.cls-1{fill:none;stroke:#002e52;stroke-miterlimit:10;stroke-width:4px;}.cls-2{fill:#3688ff;}.cls-3{fill:#002e52;}</style></defs><title>enkrypt</title><g id="Layer_2" data-name="Layer 2"><g id="Layer_1-2" data-name="Layer 1"><path class="cls-1" d="M156.11,273.22A117.11,117.11,0,1,1,273.22,156.11,117.24,117.24,0,0,1,156.11,273.22Zm0-230.87A113.76,113.76,0,1,0,269.87,156.11,113.89,113.89,0,0,0,156.11,42.35Z"/><path class="cls-1" d="M156.11,310.22C71.13,310.22,2,241.08,2,156.11S71.13,2,156.11,2,310.22,71.13,310.22,156.11,241.08,310.22,156.11,310.22Zm0-304.31c-82.82,0-150.2,67.38-150.2,150.2S73.29,306.3,156.11,306.3,306.3,238.93,306.3,156.11,238.93,5.91,156.11,5.91Z"/><path class="cls-2" d="M171,61.61H138.86A30.42,30.42,0,0,0,108.43,92v35h15.5V99a21.89,21.89,0,0,1,21.89-21.89h18.23A21.89,21.89,0,0,1,185.94,99v28.06h15.5V92A30.42,30.42,0,0,0,171,61.61Z"/><rect class="cls-2" x="88.83" y="131.9" width="132.2" height="101.2" rx="34.71" ry="34.71"/><path class="cls-3" d="M166.56,171.74a11.63,11.63,0,1,0-17.65,9.94v15.9a5.17,5.17,0,0,0,5.16,5.16h1.29a5.17,5.17,0,0,0,5.17-5.16V181.93A11.61,11.61,0,0,0,166.56,171.74Z"/></g><g id="Layer_2-2" data-name="Layer 2"><path class="cls-2" d="M396.3,85.17H360v24.58h42.61v15.19H341.09V33.17h61.39V48.49H360V70.36h36.3Z"/><path class="cls-2" d="M488.32,124.94H469.41l-36.8-60.38v60.38H413.7V33.17h18.91l36.87,60.51V33.17h18.84Z"/><path class="cls-2" d="M533.57,88.13l-9.83,10.59v26.22H504.83V33.17h18.91v41.6l8.32-11.41,23.38-30.19H578.7L546.11,74l33.53,51h-22.5Z"/><path class="cls-2" d="M620.74,91.34H605.67v33.6h-18.9V33.17h34.09q16.26,0,25.09,7.25t8.82,20.48q0,9.39-4.07,15.66t-12.32,10l19.86,37.5v.89h-20.3ZM605.67,76h15.26q7.11,0,11-3.63t3.9-10q0-6.49-3.68-10.21t-11.32-3.72H605.67Z"/><path class="cls-2" d="M697.75,74.52l19.1-41.35h20.67L707.4,91.66v33.28H688.17V91.66L658.05,33.17h20.73Z"/><path class="cls-2" d="M764.81,92.6v32.34H745.9V33.17h35.8A41.42,41.42,0,0,1,799.88,37,27.81,27.81,0,0,1,812,47.7a29.92,29.92,0,0,1,4.23,15.85q0,13.49-9.24,21.27T781.39,92.6Zm0-15.31H781.7q7.5,0,11.44-3.53t3.94-10.08q0-6.75-4-10.91t-11-4.28H764.81Z"/><path class="cls-2" d="M898.24,48.49H870.13v76.45H851.22V48.49H823.49V33.17h74.75Z"/><path class="cls-2" d="M380.29,233.05H347.5v32.89h-5.94V195.62h43.56v5H347.5V228h32.79Z"/><path class="cls-2" d="M404.44,265.94H398.5V195.62h5.94Z"/><path class="cls-2" d="M475.87,265.94h-5.94l-40.42-60.18v60.18h-6V195.62h6L470,255.84V195.62h5.89Z"/><path class="cls-2" d="M532.57,246.18H500.64l-7.24,19.76h-6.23l26.61-70.32h5.65L546,265.94h-6.18Zm-30.09-5h28.2l-14.1-38.3Z"/><path class="cls-2" d="M608.73,265.94h-5.94l-40.43-60.18v60.18h-6V195.62h6l40.48,60.22V195.62h5.89Z"/><path class="cls-2" d="M676.39,244q-1.21,11.1-7.95,17T650.5,266.9A24.76,24.76,0,0,1,636.67,263a25.52,25.52,0,0,1-9.3-11.08,39.49,39.49,0,0,1-3.33-16.4v-9.13a39.84,39.84,0,0,1,3.28-16.61,25.26,25.26,0,0,1,9.44-11.18,25.71,25.71,0,0,1,14.18-3.94q11.29,0,17.84,6.09t7.61,16.85h-6q-2.22-17.91-19.46-17.92a18.44,18.44,0,0,0-15.24,7.16Q630,214,630,226.6v8.6q0,12.18,5.52,19.43a17.83,17.83,0,0,0,15,7.25q9.33,0,14.06-4.47T670.4,244Z"/><path class="cls-2" d="M729.66,232.23H696.77v28.68h37.81v5H690.83V195.62h43.51v5H696.77V227.2h32.89Z"/><rect class="cls-3" x="306" y="153" width="592" height="7.02"/></g></g></svg>