<svg xmlns="http://www.w3.org/2000/svg" viewBox="0 0 929.78 343.78"><defs><style>.cls-1{fill:none;stroke:#2784ea;stroke-miterlimit:10;stroke-width:4px;}.cls-2{fill:#6335e3;}.cls-3{fill:#002e52;}.cls-4{fill:#2784ea;}</style></defs><title>enkrypt-2</title><g id="Layer_2" data-name="Layer 2"><g id="Layer_1-2" data-name="Layer 1"><path class="cls-1" d="M171.89,301c-71.18,0-129.1-57.92-129.1-129.11s57.92-129.1,129.1-129.1S301,100.71,301,171.89A129.26,129.26,0,0,1,171.89,301Zm0-254.52A125.42,125.42,0,1,0,297.31,171.89,125.55,125.55,0,0,0,171.89,46.48Z"/><path class="cls-1" d="M171.89,341.78C78.21,341.78,2,265.57,2,171.89S78.21,2,171.89,2,341.78,78.21,341.78,171.89,265.57,341.78,171.89,341.78Zm0-335.47C80.59,6.31,6.31,80.59,6.31,171.89S80.59,337.47,171.89,337.47s165.58-74.28,165.58-165.58S263.19,6.31,171.89,6.31Z"/><path class="cls-2" d="M188.32,67.71H152.88a33.55,33.55,0,0,0-33.55,33.55v38.61h17.09V108.94A24.13,24.13,0,0,1,160.55,84.8h20.1a24.13,24.13,0,0,1,24.13,24.14v30.93h17.09V101.26A33.55,33.55,0,0,0,188.32,67.71Z"/><rect class="cls-2" x="97.73" y="145.21" width="145.75" height="111.56" rx="34.71" ry="34.71"/><path class="cls-3" d="M183.42,189.12a12.82,12.82,0,1,0-19.47,11v17.52a5.71,5.71,0,0,0,5.7,5.69h1.42a5.71,5.71,0,0,0,5.7-5.69V200.36A12.83,12.83,0,0,0,183.42,189.12Z"/></g><g id="Layer_2-2" data-name="Layer 2"><path class="cls-2" d="M412.09,101h-36.3v24.58h42.6v15.19H356.88V49h61.39V64.27H375.79V86.14h36.3Z"/><path class="cls-2" d="M504.11,140.72H485.2L448.39,80.34v60.38H429.48V49h18.91l36.87,60.5V49h18.85Z"/><path class="cls-2" d="M549.36,103.91l-9.83,10.59v26.22H520.62V49h18.91V90.55l8.31-11.4L571.23,49h23.25L561.9,89.73l33.53,51h-22.5Z"/><path class="cls-2" d="M636.52,107.13H621.46v33.59H602.55V49h34.1q16.26,0,25.08,7.24t8.82,20.49q0,9.39-4.06,15.66t-12.32,10L674,139.84v.88H653.73ZM621.46,91.81h15.25q7.13,0,11-3.62t3.91-10q0-6.49-3.69-10.21t-11.31-3.72H621.46Z"/><path class="cls-2" d="M713.54,90.3,732.63,49h20.68l-30.13,58.48v33.28H704V107.44L673.83,49h20.74Z"/><path class="cls-2" d="M780.6,108.39v32.33H761.69V49h35.8a41.42,41.42,0,0,1,18.18,3.78,27.9,27.9,0,0,1,12.07,10.74A30,30,0,0,1,832,79.33q0,13.5-9.23,21.28t-25.56,7.78Zm0-15.32h16.89q7.5,0,11.44-3.53t3.93-10.08q0-6.73-4-10.9c-2.64-2.78-6.3-4.2-11-4.29H780.6Z"/><path class="cls-2" d="M914,64.27H885.91v76.45H867V64.27H839.27V49H914Z"/><path class="cls-2" d="M396.08,248.83H363.29v32.89h-5.94V211.4h43.56v5H363.29v27.38h32.79Z"/><path class="cls-2" d="M420.23,281.72h-6V211.4h6Z"/><path class="cls-2" d="M491.65,281.72h-5.94l-40.42-60.17v60.17h-6V211.4h6l40.47,60.23V211.4h5.89Z"/><path class="cls-2" d="M548.35,262H516.43l-7.25,19.75H503l26.61-70.32h5.65l26.62,70.32h-6.19Zm-30.09-5h28.21l-14.1-38.29Z"/><path class="cls-2" d="M624.51,281.72h-5.94l-40.42-60.17v60.17h-6V211.4h6l40.47,60.23V211.4h5.89Z"/><path class="cls-2" d="M692.17,259.79q-1.2,11.11-7.94,17t-17.94,5.9a24.8,24.8,0,0,1-13.84-3.92,25.46,25.46,0,0,1-9.3-11.08,39.45,39.45,0,0,1-3.33-16.4v-9.12a39.86,39.86,0,0,1,3.29-16.62,25.19,25.19,0,0,1,9.44-11.18,25.76,25.76,0,0,1,14.17-3.93q11.31,0,17.85,6.08t7.6,16.86h-6q-2.22-17.92-19.46-17.92a18.46,18.46,0,0,0-15.24,7.15q-5.67,7.15-5.67,19.77V251q0,12.18,5.53,19.43a17.8,17.8,0,0,0,14.95,7.25q9.32,0,14.05-4.46t5.84-13.41Z"/><path class="cls-2" d="M745.44,248H712.55V276.7h37.82v5H706.61V211.4h43.52v5H712.55V243h32.89Z"/><rect class="cls-4" x="337.78" y="168.78" width="592" height="7.02"/></g></g></svg>